<svg width="60" height="60" viewBox="0 0 60 60" fill="none" xmlns="http://www.w3.org/2000/svg">
<g clip-path="url(#clip0_4081_157)">
<path d="M31.875 12.5H16.875C16.3777 12.5 15.9008 12.6975 15.5492 13.0492C15.1975 13.4008 15 13.8777 15 14.375C15 14.8723 15.1975 15.3492 15.5492 15.7008C15.9008 16.0525 16.3777 16.25 16.875 16.25H31.875C32.3723 16.25 32.8492 16.0525 33.2008 15.7008C33.5525 15.3492 33.75 14.8723 33.75 14.375C33.75 13.8777 33.5525 13.4008 33.2008 13.0492C32.8492 12.6975 32.3723 12.5 31.875 12.5ZM33.75 23.125C33.7435 22.6297 33.5439 22.1566 33.1937 21.8063C32.8434 21.4561 32.3703 21.2565 31.875 21.25H11.875C11.3777 21.25 10.9008 21.4475 10.5492 21.7992C10.1975 22.1508 10 22.6277 10 23.125C10 23.6223 10.1975 24.0992 10.5492 24.4508C10.9008 24.8025 11.3777 25 11.875 25H31.875C32.3703 24.9935 32.8434 24.7939 33.1937 24.4437C33.5439 24.0934 33.7435 23.6203 33.75 23.125ZM11.875 30C11.3777 30 10.9008 30.1975 10.5492 30.5492C10.1975 30.9008 10 31.3777 10 31.875C10 32.3723 10.1975 32.8492 10.5492 33.2008C10.9008 33.5525 11.3777 33.75 11.875 33.75H25.625C26.1223 33.75 26.5992 33.5525 26.9508 33.2008C27.3025 32.8492 27.5 32.3723 27.5 31.875C27.5 31.3777 27.3025 30.9008 26.9508 30.5492C26.5992 30.1975 26.1223 30 25.625 30H11.875Z" fill="#FF5D1F"/>
<path d="M28.25 44.125C28.2012 44.0132 28.1208 43.9181 28.0186 43.8515C27.9164 43.7849 27.797 43.7496 27.675 43.75H6.25C5.91848 43.75 5.60054 43.6183 5.36612 43.3839C5.1317 43.1495 5 42.8315 5 42.5V6.25C5 5.91848 5.1317 5.60054 5.36612 5.36612C5.60054 5.1317 5.91848 5 6.25 5H38.75C39.0815 5 39.3995 5.1317 39.6339 5.36612C39.8683 5.60054 40 5.91848 40 6.25V31.425C39.9996 31.547 40.0349 31.6664 40.1015 31.7686C40.1681 31.8708 40.2632 31.9512 40.375 32C40.4912 32.0494 40.6193 32.0639 40.7436 32.0417C40.8679 32.0195 40.9831 31.9616 41.075 31.875L44.275 28.675C44.7318 28.1959 44.9908 27.5619 45 26.9V5C45 3.67392 44.4732 2.40215 43.5355 1.46447C42.5979 0.526784 41.3261 0 40 0L5 0C3.67392 0 2.40215 0.526784 1.46447 1.46447C0.526784 2.40215 0 3.67392 0 5L0 43.75C0 45.0761 0.526784 46.3479 1.46447 47.2855C2.40215 48.2232 3.67392 48.75 5 48.75H24.675C24.9423 48.7516 25.2031 48.6675 25.419 48.51C25.635 48.3526 25.7948 48.13 25.875 47.875C26.105 47.094 26.5361 46.3871 27.125 45.825L28.125 44.825C28.2116 44.7331 28.2695 44.6179 28.2917 44.4936C28.3139 44.3693 28.2994 44.2412 28.25 44.125ZM30.15 50.325C30.0695 50.2463 29.9692 50.1908 29.8598 50.1643C29.7503 50.1379 29.6358 50.1415 29.5282 50.1748C29.4206 50.2081 29.3241 50.2698 29.2487 50.3535C29.1733 50.4371 29.122 50.5396 29.1 50.65L27.5 58.5C27.4635 58.7018 27.4763 58.9095 27.5373 59.1054C27.5982 59.3012 27.7055 59.4795 27.85 59.625C27.9616 59.7451 28.0971 59.8405 28.2478 59.9051C28.3985 59.9697 28.5611 60.002 28.725 60H28.975L36.825 58.425C36.9361 58.4059 37.0396 58.356 37.1236 58.2808C37.2076 58.2056 37.2687 58.1083 37.3 58C37.3401 57.8927 37.3472 57.7759 37.3205 57.6646C37.2938 57.5532 37.2344 57.4524 37.15 57.375L30.15 50.325ZM58.075 29.425C57.4687 28.8158 56.748 28.3323 55.9543 28.0024C55.1606 27.6725 54.3095 27.5027 53.45 27.5027C52.5905 27.5027 51.7394 27.6725 50.9457 28.0024C50.152 28.3323 49.4313 28.8158 48.825 29.425L32.5 45.675C32.3804 45.7872 32.2851 45.9228 32.22 46.0733C32.1548 46.2238 32.1212 46.386 32.1212 46.55C32.1212 46.714 32.1548 46.8762 32.22 47.0267C32.2851 47.1772 32.3804 47.3128 32.5 47.425L40 54.925C40.1122 55.0446 40.2478 55.1399 40.3983 55.205C40.5488 55.2702 40.711 55.3038 40.875 55.3038C41.039 55.3038 41.2012 55.2702 41.3517 55.205C41.5022 55.1399 41.6378 55.0446 41.75 54.925L58.025 38.675C58.6375 38.072 59.1249 37.3539 59.4591 36.562C59.7933 35.7701 59.9677 34.9199 59.9723 34.0604C59.977 33.2009 59.8117 32.3489 59.4861 31.5534C59.1605 30.7579 58.681 30.0346 58.075 29.425Z" fill="#FF5D1F"/>
</g>
<defs>
<clipPath id="clip0_4081_157">
<rect width="60" height="60" fill="white"/>
</clipPath>
</defs>
</svg>
