<svg width="29" height="30" viewBox="0 0 29 30" fill="none" xmlns="http://www.w3.org/2000/svg">
<path d="M28.3136 14.854C29.1953 15.2553 29.0483 16.5504 28.0991 16.744L19.2498 18.5482C18.8253 18.6347 18.5048 18.9848 18.4559 19.4152L17.4373 28.3889C17.328 29.3515 16.0509 29.6119 15.5735 28.7689L11.123 20.9103C10.9095 20.5333 10.4776 20.3367 10.0531 20.4232L1.20377 22.2274C0.254578 22.421 -0.387723 21.2868 0.266443 20.5723L6.36519 13.9112C6.65774 13.5916 6.71127 13.1201 6.49779 12.7431L2.04729 4.88444C1.56992 4.04151 2.4501 3.08017 3.33176 3.48153L11.5515 7.22338C11.9458 7.40287 12.4108 7.30806 12.7034 6.98853L18.8021 0.327404C19.4563 -0.387084 20.6426 0.152938 20.5333 1.11548L19.5146 10.0892C19.4657 10.5197 19.6996 10.9326 20.0939 11.1121L28.3136 14.854Z" fill="#726E8C"/>
</svg>
